<svg id="catalyst-for-change" xmlns="http://www.w3.org/2000/svg" xmlns:xlink="http://www.w3.org/1999/xlink" viewBox="0 0 598 56"><defs><style>.cls-1,.cls-3{fill:none;}.cls-2{clip-path:url(#clip-path);}.cls-3{stroke:#000;stroke-miterlimit:10;stroke-width:4px;}</style><clipPath id="clip-path"><path class="cls-1" d="M19.06,40.27a15.11,15.11,0,0,1-8.21-2.18,14.54,14.54,0,0,1-5.3-5.88A18.14,18.14,0,0,1,3.7,24a18.14,18.14,0,0,1,1.85-8.21,14.54,14.54,0,0,1,5.3-5.88,15.11,15.11,0,0,1,8.21-2.18A15.84,15.84,0,0,1,25.54,9a14.29,14.29,0,0,1,7.92,8.62H29.67A10,10,0,0,0,25.88,13a11.56,11.56,0,0,0-6.53-1.73,12,12,0,0,0-6.55,1.71,10.9,10.9,0,0,0-4.11,4.58A14.67,14.67,0,0,0,7.3,24a14.74,14.74,0,0,0,1.39,6.46,10.89,10.89,0,0,0,4.11,4.6,12,12,0,0,0,6.55,1.71A11.56,11.56,0,0,0,25.88,35a10,10,0,0,0,3.79-4.66h3.79a15,15,0,0,1-3,5.12,14.48,14.48,0,0,1-4.9,3.5A15.84,15.84,0,0,1,19.06,40.27Zm38.74,0a11,11,0,0,1-10.18-6.14,13.58,13.58,0,0,1-1.44-6.24,13.56,13.56,0,0,1,1.44-6.27A11,11,0,0,1,57.8,15.5a10.62,10.62,0,0,1,5.11,1.16,9.67,9.67,0,0,1,3.48,3.12V15.89H70v24h-3.6V36.05a10,10,0,0,1-3.48,3.07A10.62,10.62,0,0,1,57.8,40.27ZM58.28,37a7.64,7.64,0,0,0,7.34-4.59,11.24,11.24,0,0,0,0-9.09A8,8,0,0,0,62.81,20a7.84,7.84,0,0,0-4.53-1.25,8,8,0,0,0-7.49,4.56,10.73,10.73,0,0,0,0,9.09,8,8,0,0,0,2.93,3.34A8.2,8.2,0,0,0,58.28,37Zm30.14,2.88V19.06h-4.9V15.89h4.9V7.3H92v8.59h5.52v3.17H92V39.89Zm32.3.38a10.95,10.95,0,0,1-10.17-6.14,13.58,13.58,0,0,1-1.44-6.24,13.56,13.56,0,0,1,1.44-6.27,11,11,0,0,1,10.17-6.12,10.64,10.64,0,0,1,5.12,1.16,9.67,9.67,0,0,1,3.48,3.12V15.89h3.6v24h-3.6V36.05a10,10,0,0,1-3.48,3.07A10.64,10.64,0,0,1,120.72,40.27ZM121.2,37a7.64,7.64,0,0,0,7.35-4.59,11.24,11.24,0,0,0,0-9.09A8,8,0,0,0,125.74,20a7.85,7.85,0,0,0-4.54-1.25,8,8,0,0,0-7.48,4.56,10.73,10.73,0,0,0,0,9.09,8,8,0,0,0,2.92,3.34A8.2,8.2,0,0,0,121.2,37Zm27.55,2.88V6.29h3.6v33.6Zm21.94,9.5,4.37-9.84-9.79-23.66h4L177,35.57l7.87-19.68h3.94l-14.21,33.5Zm39.7-9.12a12.88,12.88,0,0,1-5.6-1.1,8.56,8.56,0,0,1-3.48-2.91A7.93,7.93,0,0,1,200,32.35h3.74a5.81,5.81,0,0,0,.84,2.33,5,5,0,0,0,2.14,1.82,8.55,8.55,0,0,0,3.74.7,14.54,14.54,0,0,0,1.78-.14,9.57,9.57,0,0,0,2-.53,4.24,4.24,0,0,0,1.66-1.15,2.94,2.94,0,0,0,.67-2,2.7,2.7,0,0,0-1.15-2.31,9,9,0,0,0-3-1.27c-1.22-.3-2.5-.6-3.86-.89a25.58,25.58,0,0,1-3.87-1.12,7.59,7.59,0,0,1-3-2,5,5,0,0,1-1.16-3.48A6,6,0,0,1,203,17.3c1.58-1.2,3.93-1.8,7-1.8a11.63,11.63,0,0,1,5.16,1,7.5,7.5,0,0,1,3,2.52,7.37,7.37,0,0,1,1.22,3.31h-3.65a4,4,0,0,0-1.51-2.64,6.75,6.75,0,0,0-4.34-1.1q-5.72,0-5.72,3.45a2.5,2.5,0,0,0,1.16,2.21,9.42,9.42,0,0,0,3,1.22q1.83.46,3.87.87a22.43,22.43,0,0,1,3.86,1.13,7.54,7.54,0,0,1,3,2,5.28,5.28,0,0,1,1.15,3.57,6.09,6.09,0,0,1-2.67,5.35A12.21,12.21,0,0,1,210.39,40.27ZM237,39.89V19.06h-4.9V15.89H237V7.3h3.6v8.59h5.52v3.17h-5.52V39.89Zm44.11,0V19.06H277V15.89h4.13V13.78q0-3.94,2.37-5.91a9.94,9.94,0,0,1,6.51-2h.29V9.31h-.48A5.61,5.61,0,0,0,286,10.44a4.54,4.54,0,0,0-1.3,3.62v1.83h5.57v3.17h-5.57V39.89Zm32.64.38a11.91,11.91,0,0,1-6.34-1.65,11.08,11.08,0,0,1-4.12-4.49,13.58,13.58,0,0,1-1.44-6.24,13.56,13.56,0,0,1,1.44-6.27,11.07,11.07,0,0,1,4.12-4.46,13,13,0,0,1,12.7,0,11.09,11.09,0,0,1,4.1,4.46,13.56,13.56,0,0,1,1.44,6.27,13.58,13.58,0,0,1-1.44,6.24,11.1,11.1,0,0,1-4.1,4.49A11.86,11.86,0,0,1,313.73,40.27Zm0-3.26a8,8,0,0,0,4.54-1.25,7.89,7.89,0,0,0,2.8-3.34,11.24,11.24,0,0,0,0-9.09,8.09,8.09,0,0,0-14.68,0,11.24,11.24,0,0,0,0,9.09,7.82,7.82,0,0,0,2.83,3.34A8,8,0,0,0,313.73,37ZM340,39.89v-24h3.6v5.9a10.07,10.07,0,0,1,.75-1.65,9.2,9.2,0,0,1,4.27-3.89,9,9,0,0,1,3.82-.75h.24v3.6h-.44a7.47,7.47,0,0,0-4.63,1.47,9.38,9.38,0,0,0-3,3.79,12.1,12.1,0,0,0-1,5V39.89Zm56.31.38a11.53,11.53,0,0,1-6.24-1.65,11.41,11.41,0,0,1-4.11-4.49,13.47,13.47,0,0,1-1.46-6.24,13.44,13.44,0,0,1,1.46-6.27,11.4,11.4,0,0,1,4.11-4.46,11.54,11.54,0,0,1,6.24-1.66,11.93,11.93,0,0,1,7.27,2.21,10.85,10.85,0,0,1,4.06,5.71h-3.89a7.53,7.53,0,0,0-2.62-3.36,7.26,7.26,0,0,0-4.34-1.29,8.28,8.28,0,0,0-7.63,4.56,10.27,10.27,0,0,0,0,9.09,8.25,8.25,0,0,0,3,3.34A8.44,8.44,0,0,0,396.77,37a7.2,7.2,0,0,0,4.34-1.3,7.43,7.43,0,0,0,2.62-3.36h3.89a10.81,10.81,0,0,1-4.06,5.71A11.87,11.87,0,0,1,396.29,40.27Zm25.39-.38V6.29h3.6V19.63a12,12,0,0,1,3.17-2.93,8.74,8.74,0,0,1,4.8-1.2,9.79,9.79,0,0,1,4.68,1.18,9.1,9.1,0,0,1,3.55,3.5,11.21,11.21,0,0,1,1.37,5.74v14h-3.6V26a7.4,7.4,0,0,0-1.87-5.26,6.36,6.36,0,0,0-4.85-2,7.32,7.32,0,0,0-3.65.91,7,7,0,0,0-2.62,2.57,7.35,7.35,0,0,0-1,3.81V39.89Zm46.9.38a11,11,0,0,1-10.18-6.14A13.58,13.58,0,0,1,457,27.89a13.56,13.56,0,0,1,1.44-6.27,11,11,0,0,1,10.18-6.12,10.62,10.62,0,0,1,5.11,1.16,9.67,9.67,0,0,1,3.48,3.12V15.89h3.6v24h-3.6V36.05a10,10,0,0,1-3.48,3.07A10.62,10.62,0,0,1,468.58,40.27Zm.47-3.26a7.64,7.64,0,0,0,7.35-4.59,11.24,11.24,0,0,0,0-9.09A8,8,0,0,0,473.59,20a7.85,7.85,0,0,0-4.54-1.25,8,8,0,0,0-7.48,4.56,10.73,10.73,0,0,0,0,9.09,8,8,0,0,0,2.93,3.34A8.14,8.14,0,0,0,469.05,37Zm27.56,2.88v-24h3.6v3.74a12.12,12.12,0,0,1,3.16-2.93,8.76,8.76,0,0,1,4.8-1.2,9.74,9.74,0,0,1,4.68,1.18,9.13,9.13,0,0,1,3.56,3.5,11.21,11.21,0,0,1,1.36,5.74v14h-3.6V26a7.36,7.36,0,0,0-1.87-5.26,6.34,6.34,0,0,0-4.85-2,7.29,7.29,0,0,0-3.64.91,7,7,0,0,0-2.62,2.57,7.26,7.26,0,0,0-1,3.81V39.89Zm47.76,9.89a12.71,12.71,0,0,1-7.35-2,9.55,9.55,0,0,1-3.84-5.06h4a5.47,5.47,0,0,0,2.49,2.76,9.32,9.32,0,0,0,4.51,1c2.76,0,4.76-.65,6-1.94a7.78,7.78,0,0,0,1.89-5.64V35.62a10,10,0,0,1-3.48,3.09,10.35,10.35,0,0,1-5.11,1.18,11.5,11.5,0,0,1-6.12-1.61,11,11,0,0,1-4-4.39,13.28,13.28,0,0,1-1.44-6.19,13.23,13.23,0,0,1,1.44-6.22,11,11,0,0,1,4-4.37,11.5,11.5,0,0,1,6.12-1.61,10.8,10.8,0,0,1,5.11,1.13,9.46,9.46,0,0,1,3.48,3.1V15.89h3.6V39.17c0,3.42-1,6-3,7.87S548,49.78,544.37,49.78ZM544,36.62a8.07,8.07,0,0,0,4.49-1.2,7.81,7.81,0,0,0,2.83-3.24,10.72,10.72,0,0,0,0-9A7.85,7.85,0,0,0,548.47,20a8.07,8.07,0,0,0-4.49-1.2,8.43,8.43,0,0,0-4.56,1.2,8,8,0,0,0-2.93,3.21,10,10,0,0,0-1,4.52,10,10,0,0,0,1,4.48,7.9,7.9,0,0,0,2.93,3.24A8.43,8.43,0,0,0,544,36.62Zm38.21,3.65a12.16,12.16,0,0,1-6.39-1.65,11.52,11.52,0,0,1-4.24-4.49A13,13,0,0,1,570,27.89a13.56,13.56,0,0,1,1.45-6.27,11.07,11.07,0,0,1,4.12-4.46,13,13,0,0,1,12.7,0,11.16,11.16,0,0,1,4.1,4.46,13.56,13.56,0,0,1,1.44,6.27v1.44H573.74a9.75,9.75,0,0,0,1.37,3.86A8,8,0,0,0,578,36a8.55,8.55,0,0,0,4.23,1,7.67,7.67,0,0,0,4.27-1.13A8,8,0,0,0,589.2,33h3.93a11.75,11.75,0,0,1-4,5.25A11.27,11.27,0,0,1,582.19,40.27ZM573.79,26h16.32a9,9,0,0,0-2.59-5.14A7.66,7.66,0,0,0,582,18.77a7.56,7.56,0,0,0-5.54,2.06A9.18,9.18,0,0,0,573.79,26Z"/></clipPath></defs><title>catalyst-for-change</title><g class="cls-2"><path class="cls-3" d="M32.05,18.38c-2.57-7.12-8.18-9.45-14.08-9-6.7.5-12.34,6.12-12.52,14-.17,7.5,4.39,15.05,12.43,15.05,5.24,0,11.17-.81,14-8.79"/><path class="cls-3" d="M68.13,28.81c-1.88,6.59-5.35,9.85-10.32,9.75-6-.11-10-4.56-9.76-11.66.15-3.75,2.53-9.37,9.41-9.78C71.69,16.26,68.3,39.17,68.25,40c0-1,.21-4,.13-5.47,0-.38,0-1.61.06-2.41.08-3.53.14-6.87.12-7.29-.09-3-.28-7.85-.32-9"/><path class="cls-3" d="M90.21,7.23V40c-4.92-.32-7-16.74-7-22.48l14.57-.06"/><path class="cls-3" d="M131.06,28.81c-1.89,6.59-5.35,9.85-10.33,9.75-6-.11-10-4.56-9.75-11.66.15-3.75,2.53-9.37,9.41-9.78,14.23-.86,10.83,22.05,10.79,22.85,0-1,.21-4,.13-5.47,0-.38,0-1.61.05-2.41.08-3.53.15-6.87.13-7.29-.09-3-.28-7.85-.32-9"/><line class="cls-3" x1="150.55" y1="6" x2="150.55" y2="40.09"/><polyline class="cls-3" points="166.9 15.1 177.15 39.36 187.04 15.14 172.22 50.12"/><path class="cls-3" d="M217.69,22.7c-.44-3.7-3.27-5.86-8.18-5.71-5.28.16-6.74,2.25-7.06,4.7-.57,4.47,4.78,5.69,8.05,6,3.95.35,8.23,2.25,7.85,5.8-.48,4.38-5.14,5.3-8.44,5.28-2.64,0-7.65-1.15-8.18-6.68"/><path class="cls-3" d="M238.77,7.23V40c-4.92-.32-7-16.74-7-22.48l14.57-.06"/><path class="cls-3" d="M290.33,7.51c-4,0-7.38,1.3-7.45,6.45V40c-4.92-.31-7-16.74-7-22.48l14.57,0"/><path class="cls-3" d="M312.89,17.09c7.34,0,11.21,5.34,10.91,11s-2.94,10-10.07,10.51c-6.82.51-10.24-6.1-10.16-10.73.09-5,3.35-10.93,9.85-10.93"/><path class="cls-3" d="M341.86,15.71s-.48,6.24-.25,13c.2,6,.33,12.08.33,12.08a91,91,0,0,1,.33-14.26c.65-5,5.19-9.58,10.72-9.34"/><path class="cls-3" d="M405.85,24.23c-1.12-4.66-5.06-7.21-9.8-7.21a10.45,10.45,0,0,0-9.78,10.44c-.16,7.4,5.25,11.1,9.78,11.1,2.94,0,7.72-.36,9.84-6.88"/><path class="cls-3" d="M441,40s.09-10.61.09-14.53A8.52,8.52,0,0,0,432.78,17c-4.26-.14-8.6,4-9.19,9l-.26,14s0-7.77-.06-13.86c0-3.14.05-5.22,0-5.49-.06-.87,0-4.83,0-4.83V6.13"/><path class="cls-3" d="M478.91,28.81c-1.89,6.59-5.35,9.85-10.33,9.75-6-.11-10-4.56-9.75-11.66.15-3.75,2.53-9.37,9.41-9.78C482.47,16.26,479.07,39.17,479,40c0-1,.21-4,.13-5.47,0-.38,0-1.61.06-2.41.08-3.53.14-6.87.12-7.29-.09-3-.28-7.85-.32-9"/><path class="cls-3" d="M498.24,15.8s-.07,4,0,4.83c0,.27-.07,2.35,0,5.49.07,6.09.05,13.86.05,13.86l.26-14c.6-5,4.94-9.14,9.2-9A8.53,8.53,0,0,1,516,25.43c0,3.92-.09,14.53-.09,14.53"/><path class="cls-3" d="M553.83,27.64c-2.66-6.61-5.15-11.12-10.93-10.36-5.28.7-8.72,3.32-9.24,9.82-.46,5.69,3.8,11.12,9.62,11.23,6.45.12,8.59-5.52,10.84-12.59l-.35-10.1s.1,20.79.09,22.53c0,3.56-.11,9.49-9.35,9.89-5.87.26-8.9-3.28-9.53-5.84"/><path class="cls-3" d="M573.87,27.76c3,0,18.17-.06,18.17-.06-.21-2.85-1.36-10.3-9.78-10.53C574.73,17,572,22.37,572,28c0,5.85,4.07,10.49,10,10.49,5.54,0,8.8-3,9.39-6.34"/></g></svg>