<svg id="co-creator-of-vision" xmlns="http://www.w3.org/2000/svg" xmlns:xlink="http://www.w3.org/1999/xlink" viewBox="0 0 602 56"><defs><style>.cls-1,.cls-3{fill:none;}.cls-2{clip-path:url(#clip-path);}.cls-3{stroke:#000;stroke-miterlimit:10;stroke-width:4px;}</style><clipPath id="clip-path"><path class="cls-1" d="M19.06,40.27a15.11,15.11,0,0,1-8.21-2.18,14.54,14.54,0,0,1-5.3-5.88A18.14,18.14,0,0,1,3.7,24a18.14,18.14,0,0,1,1.85-8.21,14.54,14.54,0,0,1,5.3-5.88,15.11,15.11,0,0,1,8.21-2.18A15.84,15.84,0,0,1,25.54,9a14.29,14.29,0,0,1,7.92,8.62H29.67A10,10,0,0,0,25.88,13a11.56,11.56,0,0,0-6.53-1.73,12,12,0,0,0-6.55,1.71,10.9,10.9,0,0,0-4.11,4.58A14.67,14.67,0,0,0,7.3,24a14.74,14.74,0,0,0,1.39,6.46,10.89,10.89,0,0,0,4.11,4.6,12,12,0,0,0,6.55,1.71A11.56,11.56,0,0,0,25.88,35a10,10,0,0,0,3.79-4.66h3.79a15,15,0,0,1-3,5.12,14.48,14.48,0,0,1-4.9,3.5A15.84,15.84,0,0,1,19.06,40.27Zm39,0a11.85,11.85,0,0,1-6.33-1.65,11.11,11.11,0,0,1-4.13-4.49,13.58,13.58,0,0,1-1.44-6.24,13.56,13.56,0,0,1,1.44-6.27,11.09,11.09,0,0,1,4.13-4.46,11.85,11.85,0,0,1,6.33-1.66,11.87,11.87,0,0,1,6.37,1.66,11.16,11.16,0,0,1,4.1,4.46A13.56,13.56,0,0,1,70,27.89a13.58,13.58,0,0,1-1.44,6.24,11.17,11.17,0,0,1-4.1,4.49A11.87,11.87,0,0,1,58.08,40.27Zm0-3.26a7.64,7.64,0,0,0,7.35-4.59,11.24,11.24,0,0,0,0-9.09A8,8,0,0,0,62.62,20a8.11,8.11,0,0,0-11.88,3.31,11.24,11.24,0,0,0,0,9.09A7.69,7.69,0,0,0,58.08,37Zm25.78-9.55V24h12v3.51Zm37.68,12.81a11.53,11.53,0,0,1-6.24-1.65,11.32,11.32,0,0,1-4.1-4.49,13.35,13.35,0,0,1-1.47-6.24,13.33,13.33,0,0,1,1.47-6.27,11.3,11.3,0,0,1,4.1-4.46,11.54,11.54,0,0,1,6.24-1.66,11.93,11.93,0,0,1,7.27,2.21,10.85,10.85,0,0,1,4.06,5.71H129a7.46,7.46,0,0,0-2.62-3.36A7.24,7.24,0,0,0,122,18.77a8.28,8.28,0,0,0-7.63,4.56,10.27,10.27,0,0,0,0,9.09,8.25,8.25,0,0,0,3,3.34A8.44,8.44,0,0,0,122,37a7.18,7.18,0,0,0,4.34-1.3A7.36,7.36,0,0,0,129,32.35h3.89a10.81,10.81,0,0,1-4.06,5.71A11.87,11.87,0,0,1,121.54,40.27Zm25.39-.38v-24h3.6v5.9a10.07,10.07,0,0,1,.75-1.65,8.77,8.77,0,0,1,1.6-2.09,9,9,0,0,1,6.48-2.55h.24v3.6h-.43a7.47,7.47,0,0,0-4.63,1.47,9.4,9.4,0,0,0-3,3.79,12.25,12.25,0,0,0-1,5V39.89Zm36.19.38a12.1,12.1,0,0,1-6.38-1.65,11.54,11.54,0,0,1-4.25-4.49A13,13,0,0,1,171,27.89a13.56,13.56,0,0,1,1.44-6.27,11,11,0,0,1,4.13-4.46,13,13,0,0,1,12.69,0,11.11,11.11,0,0,1,4.11,4.46,13.56,13.56,0,0,1,1.44,6.27v1.44H174.68A9.74,9.74,0,0,0,176,33.19,8,8,0,0,0,179,36a8.48,8.48,0,0,0,4.22,1,7.65,7.65,0,0,0,4.27-1.13,7.87,7.87,0,0,0,2.69-2.9h3.94a11.75,11.75,0,0,1-4,5.25A11.32,11.32,0,0,1,183.12,40.27ZM174.72,26H191a8.9,8.9,0,0,0-2.59-5.14,7.65,7.65,0,0,0-5.57-2.06,7.56,7.56,0,0,0-5.54,2.06A9.31,9.31,0,0,0,174.72,26Zm44.21,14.3a11,11,0,0,1-10.18-6.14,13.58,13.58,0,0,1-1.44-6.24,13.56,13.56,0,0,1,1.44-6.27,11,11,0,0,1,10.18-6.12A10.6,10.6,0,0,1,224,16.66a9.51,9.51,0,0,1,3.48,3.12V15.89h3.6v24h-3.6V36.05A9.84,9.84,0,0,1,224,39.12,10.6,10.6,0,0,1,218.93,40.27Zm.48-3.26A8,8,0,0,0,224,35.76a7.89,7.89,0,0,0,2.8-3.34,11.24,11.24,0,0,0,0-9.09,7.65,7.65,0,0,0-7.34-4.56,8,8,0,0,0-7.49,4.56,10.83,10.83,0,0,0,0,9.09,8,8,0,0,0,2.93,3.34A8.2,8.2,0,0,0,219.41,37Zm30.14,2.88V19.06h-4.89V15.89h4.89V7.3h3.6v8.59h5.52v3.17h-5.52V39.89Zm32.6.38a11.86,11.86,0,0,1-6.34-1.65,11.11,11.11,0,0,1-4.13-4.49,13.58,13.58,0,0,1-1.44-6.24,13.56,13.56,0,0,1,1.44-6.27,11.09,11.09,0,0,1,4.13-4.46,13,13,0,0,1,12.7,0,11.16,11.16,0,0,1,4.1,4.46,13.56,13.56,0,0,1,1.44,6.27,13.58,13.58,0,0,1-1.44,6.24,11.17,11.17,0,0,1-4.1,4.49A11.86,11.86,0,0,1,282.15,40.27Zm0-3.26a7.64,7.64,0,0,0,7.34-4.59,11.24,11.24,0,0,0,0-9.09A8,8,0,0,0,286.68,20a8.82,8.82,0,0,0-9.05,0,7.92,7.92,0,0,0-2.83,3.31,11.24,11.24,0,0,0,0,9.09,7.89,7.89,0,0,0,2.83,3.34A8,8,0,0,0,282.15,37Zm26.25,2.88v-24H312v5.9a10.07,10.07,0,0,1,.75-1.65,8.77,8.77,0,0,1,1.6-2.09,9,9,0,0,1,6.48-2.55h.24v3.6h-.43A7.47,7.47,0,0,0,316,20.57a9.4,9.4,0,0,0-3,3.79,12.09,12.09,0,0,0-1,5V39.89Zm56.4.38a11.91,11.91,0,0,1-6.34-1.65,11.08,11.08,0,0,1-4.12-4.49,13.58,13.58,0,0,1-1.44-6.24,13.56,13.56,0,0,1,1.44-6.27,11.07,11.07,0,0,1,4.12-4.46,13,13,0,0,1,12.7,0,11.09,11.09,0,0,1,4.1,4.46,13.56,13.56,0,0,1,1.45,6.27,13.58,13.58,0,0,1-1.45,6.24,11.1,11.1,0,0,1-4.1,4.49A11.86,11.86,0,0,1,364.8,40.27Zm0-3.26a8,8,0,0,0,4.54-1.25,7.89,7.89,0,0,0,2.8-3.34,11.24,11.24,0,0,0,0-9.09,8.09,8.09,0,0,0-14.68,0,11.24,11.24,0,0,0,0,9.09,7.82,7.82,0,0,0,2.83,3.34A8,8,0,0,0,364.8,37Zm27.89,2.88V19.06h-4.13V15.89h4.13V13.78q0-3.94,2.37-5.91a9.94,9.94,0,0,1,6.51-2h.29V9.31h-.48a5.65,5.65,0,0,0-3.8,1.13,4.57,4.57,0,0,0-1.29,3.62v1.83h5.57v3.17h-5.57V39.89Zm49.05,0-9.4-24h3.93l7.59,20.16,7.53-20.16h3.94l-9.36,24Zm26.4-28V7.15H472v4.71Zm.15,28v-24h3.6v24Zm28.17.38a12.86,12.86,0,0,1-5.59-1.1,8.56,8.56,0,0,1-3.48-2.91,7.84,7.84,0,0,1-1.34-3.91h3.74a5.81,5.81,0,0,0,.84,2.33,4.92,4.92,0,0,0,2.14,1.82,8.55,8.55,0,0,0,3.74.7,14.69,14.69,0,0,0,1.78-.14,9.57,9.57,0,0,0,2-.53A4.21,4.21,0,0,0,502,35.38a2.89,2.89,0,0,0,.68-2,2.68,2.68,0,0,0-1.16-2.31,9,9,0,0,0-3-1.27c-1.22-.3-2.51-.6-3.87-.89a25.45,25.45,0,0,1-3.86-1.12,7.62,7.62,0,0,1-3-2,5,5,0,0,1-1.15-3.48,6,6,0,0,1,2.38-5.07c1.58-1.2,3.93-1.8,7-1.8a11.63,11.63,0,0,1,5.16,1,7.4,7.4,0,0,1,3,2.52,7.27,7.27,0,0,1,1.23,3.31h-3.65a4,4,0,0,0-1.51-2.64,6.77,6.77,0,0,0-4.35-1.1q-5.72,0-5.71,3.45a2.51,2.51,0,0,0,1.15,2.21,9.48,9.48,0,0,0,3,1.22c1.22.31,2.5.6,3.86.87a22.54,22.54,0,0,1,3.87,1.13,7.58,7.58,0,0,1,3,2,5.23,5.23,0,0,1,1.16,3.57,6.09,6.09,0,0,1-2.67,5.35A12.22,12.22,0,0,1,496.46,40.27Zm23.86-28.41V7.15h3.89v4.71Zm.14,28v-24h3.6v24Zm29.86.38A11.88,11.88,0,0,1,544,38.62a11.11,11.11,0,0,1-4.13-4.49,13.58,13.58,0,0,1-1.44-6.24,13.56,13.56,0,0,1,1.44-6.27A11.09,11.09,0,0,1,544,17.16a13,13,0,0,1,12.7,0,11.16,11.16,0,0,1,4.1,4.46,13.56,13.56,0,0,1,1.44,6.27,13.58,13.58,0,0,1-1.44,6.24,11.17,11.17,0,0,1-4.1,4.49A11.86,11.86,0,0,1,550.32,40.27Zm0-3.26a7.64,7.64,0,0,0,7.34-4.59,11.24,11.24,0,0,0,0-9.09,8.11,8.11,0,0,0-14.69,0,11.24,11.24,0,0,0,0,9.09,7.84,7.84,0,0,0,2.84,3.34A7.94,7.94,0,0,0,550.32,37Zm26.25,2.88v-24h3.6v3.74a12.16,12.16,0,0,1,3.17-2.93,8.76,8.76,0,0,1,4.8-1.2,9.74,9.74,0,0,1,4.68,1.18,9,9,0,0,1,3.55,3.5,11.11,11.11,0,0,1,1.37,5.74v14h-3.6V26a7.36,7.36,0,0,0-1.87-5.26,6.34,6.34,0,0,0-4.85-2,7.35,7.35,0,0,0-3.65.91,6.92,6.92,0,0,0-2.61,2.57,7.26,7.26,0,0,0-1,3.81V39.89Z"/></clipPath></defs><title>co-creator-of-vision</title><g class="cls-2"><path class="cls-3" d="M32.05,18.38c-2.57-7.12-8.18-9.45-14.08-9-6.7.5-12.34,6.12-12.52,14-.17,7.5,4.39,15.05,12.43,15.05,5.24,0,11.17-.81,14-8.79"/><path class="cls-3" d="M57.24,17.09c7.35,0,11.22,5.34,10.92,11s-3,10-10.08,10.51c-6.81.51-10.23-6.1-10.15-10.73C48,22.91,51.28,17,57.78,17"/><line class="cls-3" x1="83.45" y1="25.68" x2="96.32" y2="25.57"/><path class="cls-3" d="M131.11,24.23C130,19.57,126,17,121.3,17a10.46,10.46,0,0,0-9.78,10.44c-.16,7.4,5.25,11.1,9.78,11.1,2.94,0,7.73-.36,9.84-6.88"/><path class="cls-3" d="M148.81,15.71s-.48,6.24-.25,13c.2,6,.32,12.08.32,12.08a91,91,0,0,1,.33-14.26c.65-5,5.19-9.58,10.73-9.34"/><path class="cls-3" d="M174.8,27.76c3,0,18.18-.06,18.18-.06-.21-2.85-1.36-10.3-9.79-10.53C175.66,17,172.93,22.37,173,28c0,5.85,4.06,10.49,10,10.49,5.55,0,8.8-3,9.4-6.34"/><path class="cls-3" d="M229.26,28.81c-1.88,6.59-5.34,9.85-10.32,9.75-6-.11-10-4.56-9.75-11.66.15-3.75,2.53-9.37,9.41-9.78,14.23-.86,10.83,22.05,10.79,22.85,0-1,.2-4,.13-5.47,0-.38,0-1.61,0-2.41.08-3.53.15-6.87.12-7.29-.09-3-.27-7.85-.32-9"/><path class="cls-3" d="M251.35,7.23V40c-4.92-.32-7-16.74-7-22.48l14.56-.06"/><path class="cls-3" d="M281.31,17.09c7.34,0,11.21,5.34,10.91,11s-3,10-10.07,10.51c-6.82.51-10.24-6.1-10.16-10.73.08-5,3.35-10.93,9.85-10.93"/><path class="cls-3" d="M310.28,15.71s-.48,6.24-.25,13c.2,6,.32,12.08.32,12.08a91,91,0,0,1,.33-14.26c.65-5,5.19-9.58,10.73-9.34"/><path class="cls-3" d="M364,17.09c7.34,0,11.21,5.34,10.92,11s-2.95,10-10.08,10.51c-6.82.51-10.24-6.1-10.16-10.73.09-5,3.35-10.93,9.85-10.93"/><path class="cls-3" d="M401.92,7.51c-4,0-7.37,1.3-7.44,6.45V40c-4.92-.31-7-16.74-7-22.48l14.57,0"/><polyline class="cls-3" points="433.99 15.2 443.9 40.75 453.66 15.18"/><path class="cls-3" d="M470.12,15.36V39.81c-4.92-.32-9.16-25.11-7-30.48,1.74-4.37,5.55-4.14,6.54-3.72.7.3.37,4.07.44,6.5"/><path class="cls-3" d="M503.77,22.7c-.45-3.7-3.27-5.86-8.18-5.71-5.29.16-6.75,2.25-7.06,4.7-.57,4.47,4.78,5.69,8,6,4,.35,8.24,2.25,7.86,5.8-.48,4.38-5.14,5.3-8.45,5.28-2.63,0-7.64-1.15-8.17-6.68"/><path class="cls-3" d="M522.29,15.36V39.81c-4.92-.32-9.15-25.11-7-30.48C517,5,520.83,5.19,521.82,5.61c.7.3.37,4.07.44,6.5"/><path class="cls-3" d="M549.48,17.09c7.34,0,11.21,5.34,10.91,11s-2.94,10-10.07,10.51c-6.82.51-10.24-6.1-10.16-10.73.08-5,3.35-10.93,9.85-10.93"/><path class="cls-3" d="M578.21,15.8s-.07,4,0,4.83c0,.27-.07,2.35,0,5.49.07,6.09.05,13.86.05,13.86l.26-14c.59-5,4.94-9.14,9.2-9A8.53,8.53,0,0,1,596,25.43c0,3.92-.09,14.53-.09,14.53"/></g></svg>