<svg id="we-raise-your-value" xmlns="http://www.w3.org/2000/svg" xmlns:xlink="http://www.w3.org/1999/xlink" viewBox="0 0 592 56"><defs><style>.cls-1,.cls-3{fill:none;}.cls-2{clip-path:url(#clip-path);}.cls-3{stroke:#000;stroke-miterlimit:10;stroke-width:4px;}</style><clipPath id="clip-path"><path class="cls-1" d="M12.15,39.89,2.26,8.11H6.05L14.21,34.8,22.76,8.11h4.12L35.43,34.8,43.59,8.11h3.79L37.49,39.89H33.41L24.82,13.2,16.23,39.89Zm57.46.38a12.11,12.11,0,0,1-6.39-1.65A11.54,11.54,0,0,1,59,34.13a13,13,0,0,1-1.51-6.24,13.56,13.56,0,0,1,1.44-6.27A11.09,11.09,0,0,1,63,17.16a13,13,0,0,1,12.7,0,11.16,11.16,0,0,1,4.1,4.46,13.56,13.56,0,0,1,1.44,6.27v1.44H61.16a9.6,9.6,0,0,0,1.37,3.86A7.92,7.92,0,0,0,65.43,36a8.48,8.48,0,0,0,4.22,1,7.65,7.65,0,0,0,4.27-1.13A7.87,7.87,0,0,0,76.61,33h3.94a11.75,11.75,0,0,1-4,5.25A11.31,11.31,0,0,1,69.61,40.27ZM61.21,26H77.53a8.91,8.91,0,0,0-2.6-5.14,8.52,8.52,0,0,0-11.11,0A9.23,9.23,0,0,0,61.21,26Zm53.9,13.92v-24h3.6v5.9a9.86,9.86,0,0,1,.74-1.65,9.1,9.1,0,0,1,1.61-2.09,8.88,8.88,0,0,1,2.66-1.8,9,9,0,0,1,3.82-.75h.24v3.6h-.43a7.45,7.45,0,0,0-4.63,1.47,9.4,9.4,0,0,0-3,3.79,12.09,12.09,0,0,0-1,5V39.89Zm35.66.38a10.95,10.95,0,0,1-10.17-6.14,13.58,13.58,0,0,1-1.44-6.24,13.56,13.56,0,0,1,1.44-6.27,11,11,0,0,1,10.17-6.12,10.57,10.57,0,0,1,5.11,1.16,9.51,9.51,0,0,1,3.48,3.12V15.89H163v24h-3.6V36.05a9.84,9.84,0,0,1-3.48,3.07A10.57,10.57,0,0,1,150.77,40.27Zm.48-3.26a7.64,7.64,0,0,0,7.35-4.59,11.24,11.24,0,0,0,0-9.09,7.68,7.68,0,0,0-7.35-4.56,8,8,0,0,0-7.49,4.56,10.83,10.83,0,0,0,0,9.09,8.11,8.11,0,0,0,2.93,3.34A8.2,8.2,0,0,0,151.25,37Zm27.41-25.15V7.15h3.89v4.71Zm.14,28v-24h3.6v24Zm28.18.38a12.83,12.83,0,0,1-5.59-1.1,8.56,8.56,0,0,1-3.48-2.91,8,8,0,0,1-1.35-3.91h3.75a5.53,5.53,0,0,0,.84,2.33,4.89,4.89,0,0,0,2.13,1.82,8.56,8.56,0,0,0,3.75.7,14.4,14.4,0,0,0,1.77-.14,9.27,9.27,0,0,0,2-.53,4.24,4.24,0,0,0,1.66-1.15,2.89,2.89,0,0,0,.67-2A2.67,2.67,0,0,0,212,31.1a9,9,0,0,0-3-1.27c-1.21-.3-2.5-.6-3.86-.89a25.12,25.12,0,0,1-3.86-1.12,7.62,7.62,0,0,1-3-2,5,5,0,0,1-1.15-3.48,6,6,0,0,1,2.37-5.07q2.38-1.8,7-1.8a11.57,11.57,0,0,1,5.16,1,7.5,7.5,0,0,1,3,2.52A7.14,7.14,0,0,1,216,22.32h-3.64a4.06,4.06,0,0,0-1.52-2.64,6.75,6.75,0,0,0-4.34-1.1q-5.72,0-5.71,3.45a2.49,2.49,0,0,0,1.15,2.21,9.48,9.48,0,0,0,3,1.22c1.21.31,2.5.6,3.86.87a22.17,22.17,0,0,1,3.86,1.13,7.54,7.54,0,0,1,3,2,5.23,5.23,0,0,1,1.15,3.57,6.11,6.11,0,0,1-2.66,5.35A12.24,12.24,0,0,1,207,40.27Zm34.66,0a12.14,12.14,0,0,1-6.39-1.65A11.54,11.54,0,0,1,231,34.13a13.14,13.14,0,0,1-1.51-6.24,13.56,13.56,0,0,1,1.44-6.27,11.09,11.09,0,0,1,4.13-4.46,13,13,0,0,1,12.7,0,11.16,11.16,0,0,1,4.1,4.46,13.56,13.56,0,0,1,1.44,6.27v1.44H233.19a9.6,9.6,0,0,0,1.37,3.86,7.92,7.92,0,0,0,2.9,2.79,8.48,8.48,0,0,0,4.22,1A7.71,7.71,0,0,0,246,35.88a7.92,7.92,0,0,0,2.68-2.9h3.94a11.75,11.75,0,0,1-4,5.25A11.31,11.31,0,0,1,241.64,40.27ZM233.24,26h16.32a8.91,8.91,0,0,0-2.6-5.14,8.52,8.52,0,0,0-11.11,0A9.23,9.23,0,0,0,233.24,26Zm56.39,23.42L294,39.55l-9.79-23.66h4l7.73,19.68,7.87-19.68h3.94l-14.21,33.5Zm40.9-9.12a11.91,11.91,0,0,1-6.34-1.65,11.08,11.08,0,0,1-4.12-4.49,13.58,13.58,0,0,1-1.44-6.24,13.56,13.56,0,0,1,1.44-6.27,11.07,11.07,0,0,1,4.12-4.46,13,13,0,0,1,12.7,0,11.09,11.09,0,0,1,4.1,4.46,13.56,13.56,0,0,1,1.44,6.27A13.58,13.58,0,0,1,341,34.13a11.1,11.1,0,0,1-4.1,4.49A11.86,11.86,0,0,1,330.53,40.27Zm0-3.26a8,8,0,0,0,4.54-1.25,7.89,7.89,0,0,0,2.8-3.34,11.24,11.24,0,0,0,0-9.09,8.09,8.09,0,0,0-14.68,0,11.24,11.24,0,0,0,0,9.09A7.82,7.82,0,0,0,326,35.76,8,8,0,0,0,330.53,37Zm35.62,3.26a9.79,9.79,0,0,1-4.66-1.17,9.2,9.2,0,0,1-3.58-3.51,11.15,11.15,0,0,1-1.36-5.73v-14h3.6V29.76A7.33,7.33,0,0,0,362,35a6.41,6.41,0,0,0,4.83,2,7.12,7.12,0,0,0,7.24-7.3V15.89h3.6v24h-3.6V36.14A12,12,0,0,1,371,39.07,8.76,8.76,0,0,1,366.15,40.27Zm27.4-.38v-24h3.6v5.9a10.07,10.07,0,0,1,.75-1.65,9.2,9.2,0,0,1,4.27-3.89A9,9,0,0,1,406,15.5h.24v3.6h-.44a7.47,7.47,0,0,0-4.63,1.47,9.38,9.38,0,0,0-3,3.79,12.1,12.1,0,0,0-1,5V39.89Zm52.52,0-9.41-24h3.93l7.59,20.16,7.53-20.16h3.94l-9.36,24Zm36.19.38a11,11,0,0,1-10.18-6.14,13.58,13.58,0,0,1-1.44-6.24,13.56,13.56,0,0,1,1.44-6.27,11,11,0,0,1,10.18-6.12,10.6,10.6,0,0,1,5.11,1.16,9.67,9.67,0,0,1,3.48,3.12V15.89h3.6v24h-3.6V36.05a10,10,0,0,1-3.48,3.07A10.6,10.6,0,0,1,482.26,40.27Zm.48-3.26a7.64,7.64,0,0,0,7.34-4.59,11.24,11.24,0,0,0,0-9.09A8,8,0,0,0,487.27,20a7.84,7.84,0,0,0-4.53-1.25,8,8,0,0,0-7.49,4.56,10.73,10.73,0,0,0,0,9.09,8,8,0,0,0,2.93,3.34A8.2,8.2,0,0,0,482.74,37Zm27.55,2.88V6.29h3.6v33.6Zm28.8.38a9.82,9.82,0,0,1-4.66-1.17,9.11,9.11,0,0,1-3.57-3.51,11.05,11.05,0,0,1-1.37-5.73v-14h3.6V29.76A7.33,7.33,0,0,0,535,35a6.42,6.42,0,0,0,4.83,2,7.14,7.14,0,0,0,7.25-7.3V15.89h3.6v24h-3.6V36.14a12,12,0,0,1-3.17,2.93A8.76,8.76,0,0,1,539.09,40.27Zm38.06,0a12.1,12.1,0,0,1-6.38-1.65,11.47,11.47,0,0,1-4.25-4.49A13,13,0,0,1,565,27.89a13.56,13.56,0,0,1,1.44-6.27,11,11,0,0,1,4.13-4.46,13,13,0,0,1,12.69,0,11.11,11.11,0,0,1,4.11,4.46,13.56,13.56,0,0,1,1.44,6.27v1.44H568.7a9.91,9.91,0,0,0,1.37,3.86A8,8,0,0,0,573,36a8.48,8.48,0,0,0,4.22,1,7.65,7.65,0,0,0,4.27-1.13,8,8,0,0,0,2.69-2.9h3.94a11.89,11.89,0,0,1-4,5.25A11.32,11.32,0,0,1,577.15,40.27ZM568.75,26h16.32a8.9,8.9,0,0,0-2.59-5.14,7.65,7.65,0,0,0-5.57-2.06,7.56,7.56,0,0,0-5.54,2.06A9.24,9.24,0,0,0,568.75,26Z"/></clipPath></defs><title>we-raise-your-value</title><g class="cls-2"><polyline class="cls-3" points="3.96 7.46 14.18 40.53 24.82 7.7 35.46 40.11 45.74 7.46"/><path class="cls-3" d="M61.28,27.76c3,0,18.18-.06,18.18-.06-.21-2.85-1.36-10.3-9.79-10.53C62.14,17,59.41,22.37,59.44,28c0,5.85,4.06,10.49,10,10.49,5.55,0,8.8-3,9.4-6.34"/><path class="cls-3" d="M117,15.71a129.84,129.84,0,0,0-.25,13c.2,6,.32,12.08.32,12.08a91,91,0,0,1,.33-14.26c.65-5,5.19-9.58,10.72-9.34"/><path class="cls-3" d="M161.11,28.81c-1.89,6.59-5.35,9.85-10.33,9.75-6-.11-10-4.56-9.75-11.66.15-3.75,2.53-9.37,9.41-9.78,14.23-.86,10.83,22.05,10.79,22.85,0-1,.21-4,.13-5.47,0-.38,0-1.61,0-2.41.08-3.53.15-6.87.13-7.29-.09-3-.28-7.85-.33-9"/><path class="cls-3" d="M180.63,15.36V39.81c-4.92-.32-9.15-25.11-7-30.48,1.75-4.37,5.56-4.14,6.54-3.72.7.3.37,4.07.44,6.5"/><path class="cls-3" d="M214.29,22.7C213.84,19,211,16.84,206.1,17c-5.28.16-6.74,2.25-7,4.7-.58,4.47,4.77,5.69,8,6,4,.35,8.23,2.25,7.85,5.8-.47,4.38-5.14,5.3-8.44,5.28-2.64,0-7.64-1.15-8.17-6.68"/><path class="cls-3" d="M233.32,27.76c3,0,18.17-.06,18.17-.06-.21-2.85-1.36-10.3-9.79-10.53-7.53-.21-10.26,5.2-10.23,10.83,0,5.85,4.06,10.49,10,10.49,5.55,0,8.81-3,9.4-6.34"/><polyline class="cls-3" points="285.84 15.1 296.09 39.36 305.98 15.14 291.16 50.12"/><path class="cls-3" d="M329.69,17.09c7.34,0,11.21,5.34,10.91,11s-2.94,10-10.07,10.51c-6.82.51-10.24-6.1-10.16-10.73.09-5,3.35-10.93,9.85-10.93"/><path class="cls-3" d="M358.4,15.69l-.14,12.57c-.1,4.53,1.45,9.94,7.29,10.23,7.06.35,9.44-7.11,10.21-14.34a71.29,71.29,0,0,0,.22-8.38l-.11,24.29"/><path class="cls-3" d="M395.43,15.71s-.48,6.24-.25,13c.2,6,.33,12.08.33,12.08a91,91,0,0,1,.33-14.26c.65-5,5.19-9.58,10.72-9.34"/><polyline class="cls-3" points="438.31 15.2 448.22 40.75 457.98 15.18"/><path class="cls-3" d="M492.59,28.81c-1.88,6.59-5.34,9.85-10.32,9.75-6-.11-10-4.56-9.76-11.66.16-3.75,2.54-9.37,9.41-9.78,14.23-.86,10.84,22.05,10.79,22.85,0-1,.21-4,.13-5.47,0-.38,0-1.61.06-2.41.08-3.53.14-6.87.12-7.29-.09-3-.27-7.85-.32-9"/><line class="cls-3" x1="512.09" y1="6" x2="512.09" y2="40.09"/><path class="cls-3" d="M531.35,15.69l-.15,12.57c-.09,4.53,1.45,9.94,7.29,10.23,7.06.35,9.44-7.11,10.21-14.34a68.93,68.93,0,0,0,.22-8.38l-.11,24.29"/><path class="cls-3" d="M568.83,27.76c3,0,18.18-.06,18.18-.06-.22-2.85-1.36-10.3-9.79-10.53C569.69,17,567,22.37,567,28c0,5.85,4.06,10.49,10,10.49,5.55,0,8.8-3,9.4-6.34"/></g></svg>